<svg xmlns="http://www.w3.org/2000/svg" viewBox="328.4 98.7 894.7 803.9">
  <!-- LeifAI mark: Viking dragon figurehead over a wave. -->
  <g fill="#FFFFFF">
    <path id="figurehead" fill-rule="evenodd" d="M 611.55,111.25 c -0.6,0.28 -1.68,0.65 -2.38,0.85 c -0.72,0.2 -2.08,0.65 -3.05,1.02 c -0.95,0.35 -2.2,0.8 -2.75,0.97 c -0.93,0.33 -4.3,1.55 -8.38,3.08 c -0.9,0.33 -2.08,0.75 -2.62,0.95 c -0.55,0.17 -1.77,0.65 -2.75,1 c -2.15,0.8 -3.77,1.38 -7,2.48 c -3.4,1.18 -5.08,1.8 -7.88,2.95 c -1.3,0.55 -5.03,2.05 -8.25,3.35 c -5.5,2.2 -8.95,3.8 -10.47,4.83 c -0.35,0.25 -1.65,1.1 -2.9,1.93 c -3.38,2.23 -4.88,3.58 -7.38,6.62 c -2.95,3.6 -4.17,5.53 -5.58,8.72 c -1.25,2.8 -1.9,4.78 -2.55,7.67 c -0.23,0.97 -0.55,1.93 -0.75,2.08 c -0.17,0.15 -1.45,0.45 -2.8,0.62 c -5.08,0.72 -10.22,1.93 -13.75,3.2 c -2.55,0.95 -8.3,3.3 -9.45,3.88 c -0.55,0.28 -1.62,0.8 -2.38,1.18 c -3.92,1.9 -5.75,3.08 -11.5,7.35 c -8.82,6.55 -16.95,16.18 -23.3,27.52 c -1.05,1.85 -2.48,4.38 -3.2,5.62 c -2.23,3.83 -4.62,9.2 -7.38,16.5 c -2.08,5.55 -4.38,14.68 -5.15,20.38 c -0.7,5.12 -0.42,12 0.65,17.38 c 0.17,0.95 0.4,2.2 0.5,2.75 c 0.07,0.55 0.3,1.68 0.5,2.5 c 0.2,0.82 0.7,2.9 1.1,4.62 c 0.4,1.73 1.3,5.47 1.98,8.38 c 2.08,8.75 3.05,17.48 3.05,27.45 c 0,9.32 -0.93,13.93 -4.08,20.3 c -0.97,1.98 -1.45,3.25 -1.65,4.55 c -0.75,4.85 0.12,9.72 2.52,14.3 c 2.42,4.62 4.4,7.15 7.55,9.68 c 4.92,3.95 9.55,5.8 15.03,6.03 c 2.55,0.12 3.35,0.05 5.25,-0.42 c 2.17,-0.55 4.05,-1.23 6.38,-2.33 c 2.17,-1.02 6.15,-3.88 7.78,-5.58 c 2.77,-2.9 5.72,-7.97 6.95,-11.97 c 0.3,-0.97 0.72,-2.25 0.95,-2.88 c 0.5,-1.48 0.7,-6.03 0.33,-7.5 c -1.45,-5.62 -1.57,-6.47 -1.6,-11.88 c -0.03,-3.88 0.1,-6.08 0.42,-8.38 c 0.88,-6.08 2.2,-11.1 4.42,-16.88 c 0.42,-1.1 0.88,-2.33 1,-2.7 c 0.55,-1.73 3.2,-6.7 5.05,-9.5 c 2.85,-4.28 4.97,-6.88 8.25,-10.07 c 3.88,-3.8 5.17,-4.8 8.47,-6.4 c 3.95,-1.95 4.2,-2.05 7.72,-3.2 c 7.42,-2.48 12.5,-2.38 20.38,0.42 c 3.4,1.18 7.5,3.58 9.8,5.67 c 1.32,1.23 1.32,1.23 1.32,2.73 c 0,0.82 0.23,2.9 0.47,4.65 c 0.28,1.73 0.6,4.45 0.78,6.03 c 0.15,1.57 0.4,4 0.55,5.38 c 0.15,1.6 0.2,6.4 0.12,13.25 c -0.1,8.25 -0.25,11.97 -0.65,16 c -0.3,2.88 -0.57,5.4 -0.65,5.62 c -0.05,0.2 -0.23,1.45 -0.38,2.75 c -0.45,3.95 -1.85,11.03 -2.73,13.75 c -0.25,0.75 -0.93,2.9 -1.52,4.75 c -0.57,1.85 -1.27,3.9 -1.52,4.55 c -0.28,0.65 -0.47,1.32 -0.47,1.52 c 0,0.38 -1.75,3.92 -2.62,5.3 c -1.25,2.02 -1.82,2.88 -2.9,4.25 c -0.65,0.82 -1.45,2.2 -1.82,3.05 c -0.57,1.38 -0.65,1.9 -0.65,4.45 c 0,2.55 0.07,3.08 0.65,4.45 c 1.18,2.83 2.7,4.2 6,5.47 c 2,0.75 4.9,0.75 6.95,0 c 2.65,-1.02 4.62,-2.65 6.97,-5.85 c 1.38,-1.88 3.95,-6.2 4.85,-8.2 c 0.3,-0.62 0.8,-1.75 1.15,-2.5 c 0.82,-1.82 2.23,-5.85 3.42,-9.88 c 1.52,-5.1 2.83,-11.35 3.75,-18 c 0.28,-2.08 0.72,-5.33 1,-7.25 c 0.55,-3.9 0.85,-7.17 1.25,-13.62 c 0.15,-2.4 0.38,-5.55 0.5,-7 c 0.12,-1.45 0.3,-4.25 0.38,-6.25 c 0.1,-2 0.2,-4.35 0.25,-5.25 c 0.05,-0.9 0.1,-1.77 0.1,-1.95 c 0.03,-0.17 0.35,-0.3 0.78,-0.3 c 0.68,0 0.82,0.17 1.85,2.17 c 0.6,1.23 1.18,2.48 1.27,2.83 c 0.1,0.35 0.6,1.62 1.12,2.88 c 2.25,5.3 5.08,16.32 5.97,23.25 c 0.93,7.05 1.07,10.2 1.2,25.23 c 0.07,9.43 0.03,17.27 -0.15,20.62 c -0.55,10.9 -1.25,20 -2.3,30.52 c -1.23,12.22 -1.82,17.65 -2.6,23.38 c -0.2,1.5 -0.65,4.88 -1,7.5 c -0.33,2.6 -0.68,5.08 -0.75,5.5 c -0.07,0.4 -0.47,3.27 -0.88,6.38 c -0.42,3.1 -0.97,6.92 -1.25,8.5 c -0.25,1.57 -0.65,4.05 -0.85,5.5 c -1.27,8.25 -1.68,10.75 -1.93,11.88 c -0.15,0.68 -0.42,2.2 -0.6,3.38 c -0.47,3.05 -2.08,12.07 -2.5,14.12 c -0.2,0.95 -0.88,4.55 -1.5,8 c -0.62,3.42 -1.3,7.03 -1.5,8 c -0.2,0.95 -0.42,2.25 -0.5,2.88 c -0.1,0.62 -0.55,3.1 -1,5.5 c -0.47,2.4 -1.15,5.95 -1.5,7.88 c -0.88,4.65 -1.82,9.55 -2.77,14.12 c -0.2,1.02 -0.53,2.8 -0.72,3.95 c -0.2,1.12 -0.42,2.15 -0.5,2.27 c -0.07,0.12 -0.38,1.5 -0.65,3.08 c -0.97,5.28 -1.15,6.15 -1.55,7.72 c -0.2,0.88 -0.62,2.73 -0.9,4.1 c -0.28,1.38 -0.68,3.35 -0.9,4.38 c -0.85,4.15 -1.12,5.47 -1.62,7.5 c -0.28,1.18 -0.72,3.2 -1,4.5 c -0.28,1.3 -0.72,3.45 -1,4.75 c -0.9,4.22 -2.8,13.57 -3.05,14.97 c -0.12,0.75 -0.28,1.45 -0.35,1.55 c -0.07,0.12 -0.35,1.38 -0.62,2.77 c -1.48,7.3 -2,9.82 -2.58,12.2 c -0.9,3.67 -1.98,8.25 -2.4,10.25 c -0.25,1.18 -0.57,2.58 -0.72,3.12 c -0.12,0.55 -0.47,2.08 -0.75,3.38 c -1.12,5.05 -1.6,7.17 -2.02,8.75 c -0.25,0.9 -0.68,2.75 -1,4.12 c -0.3,1.38 -0.78,3.23 -1.02,4.1 c -0.28,0.88 -0.47,1.8 -0.47,2.02 c 0,0.23 -0.2,1.15 -0.47,2.02 c -0.25,0.88 -0.72,2.73 -1.02,4.1 c -0.3,1.38 -0.78,3.27 -1.02,4.25 c -0.25,0.95 -0.68,2.7 -0.97,3.88 c -0.3,1.18 -0.7,2.67 -0.88,3.38 c -0.17,0.68 -0.4,1.65 -0.5,2.12 c -0.07,0.47 -0.38,1.75 -0.62,2.8 c -1.02,4.05 -1.57,6.12 -2,7.83 c -0.25,0.95 -0.72,2.7 -1.02,3.88 c -0.9,3.52 -1.5,5.8 -1.98,7.5 c -0.25,0.9 -0.7,2.58 -1,3.75 c -1.15,4.5 -2.5,9.12 -5,17.12 c -0.28,0.82 -0.78,2.5 -1.12,3.75 c -0.38,1.23 -0.82,2.75 -1,3.38 c -0.62,2.15 -3.7,11.62 -4.33,13.38 c -0.33,0.95 -0.88,2.48 -1.23,3.38 c -0.33,0.9 -0.72,2.02 -0.85,2.5 c -0.15,0.47 -0.4,1.2 -0.57,1.62 c -0.2,0.4 -0.57,1.4 -0.88,2.2 c -1.48,4.12 -2.62,7.03 -3.98,9.93 c -0.55,1.2 -1.55,3.42 -2.35,5.25 c -0.28,0.62 -0.65,1.45 -0.82,1.88 c -0.88,1.93 -3.98,8.22 -5.08,10.25 c -1.48,2.7 -4.47,8.1 -4.8,8.62 c -0.15,0.2 -0.35,0.62 -0.5,0.95 c -0.12,0.3 -0.45,0.88 -0.72,1.25 c -0.25,0.38 -1.77,2.65 -3.35,5.08 c -1.6,2.4 -3.38,5.03 -3.98,5.8 c -0.6,0.78 -1.52,2.05 -2.08,2.85 c -2.35,3.35 -8.5,10.75 -12.1,14.57 c -10.57,11.18 -17.75,17.3 -28.8,24.55 c -4.72,3.1 -6.03,3.85 -10.6,6.15 c -4.97,2.5 -9.45,4.35 -14.62,6.03 c -4.92,1.57 -6.4,1.98 -10,2.58 c -3.08,0.53 -4.12,0.57 -11.75,0.55 c -8.18,0 -8.45,-0.03 -11.25,-0.68 c -3.7,-0.85 -6.95,-1.93 -10.25,-3.35 c -2.77,-1.2 -5.88,-2.8 -7.12,-3.67 c -5.08,-3.55 -10,-9.07 -12.7,-14.28 c -0.97,-1.9 -1.93,-4.03 -1.93,-4.33 c 0,-0.15 -0.15,-0.65 -0.35,-1.1 c -1.12,-2.6 -2.23,-10.03 -2.2,-14.95 c 0.03,-3.27 0.88,-11.18 1.27,-11.97 c 0.12,-0.23 0.3,-0.9 0.4,-1.52 c 0.07,-0.62 0.38,-1.77 0.65,-2.58 c 0.25,-0.78 0.47,-1.6 0.47,-1.8 c 0,-0.2 0.15,-0.72 0.35,-1.18 c 0.2,-0.45 0.7,-1.77 1.15,-2.92 c 0.42,-1.15 0.88,-2.27 1,-2.5 c 0.1,-0.23 0.78,-1.57 1.48,-3.02 c 0.72,-1.45 1.55,-3.02 1.85,-3.55 c 0.3,-0.5 0.93,-1.55 1.38,-2.33 c 0.75,-1.3 2.9,-4.28 5.83,-8.12 c 3.48,-4.53 13.95,-13.95 19.73,-17.7 c 1.18,-0.75 2.42,-1.6 2.8,-1.85 c 0.38,-0.25 0.75,-0.45 0.82,-0.45 c 0.07,0 1.23,-0.72 2.6,-1.6 c 2.98,-1.95 6.75,-3.95 10.43,-5.53 c 1.5,-0.65 3.17,-1.38 3.73,-1.62 c 2.1,-0.93 10.07,-4.08 11.75,-4.65 c 2.3,-0.8 7.47,-2.15 11.25,-2.98 c 1.65,-0.35 3.73,-0.8 4.62,-1 c 7.62,-1.65 17.85,-2.6 28.25,-2.62 c 12.05,-0.03 18.9,0.68 36.73,3.75 c 1.57,0.28 3.23,0.62 3.73,0.78 c 0.68,0.23 0.93,0.2 1.18,-0.05 c 0.38,-0.4 2.1,-5.55 3.88,-11.47 c 0.3,-1.02 0.75,-2.5 1,-3.25 c 0.82,-2.52 1.45,-4.6 2,-6.75 c 0.3,-1.18 0.7,-2.58 0.9,-3.12 c 0.17,-0.55 0.5,-1.68 0.7,-2.5 c 0.2,-0.82 0.78,-3 1.27,-4.85 c 0.5,-1.82 0.88,-3.58 0.82,-3.85 c -0.07,-0.45 -0.45,-0.6 -2.45,-1.07 c -1.3,-0.3 -4.05,-0.78 -6.12,-1.07 c -2.05,-0.3 -4.92,-0.78 -6.38,-1.02 c -5.75,-1.05 -9.35,-1.52 -17.38,-2.25 c -4.05,-0.38 -12.45,-0.75 -16.5,-0.75 c -5.17,0 -14.18,0.45 -17.62,0.9 c -1.57,0.2 -4.05,0.47 -5.5,0.62 c -1.45,0.12 -3.52,0.4 -4.62,0.6 c -1.1,0.17 -2.67,0.42 -3.5,0.5 c -0.82,0.1 -2.05,0.33 -2.73,0.53 c -0.68,0.2 -1.57,0.35 -1.95,0.35 c -0.97,0 -8.05,1.62 -13.2,3.02 c -0.9,0.25 -2.3,0.62 -3.12,0.85 c -2.48,0.68 -9.6,3.12 -12.12,4.15 c -1.3,0.53 -2.48,0.97 -2.62,0.97 c -0.12,0 -0.57,0.17 -0.97,0.38 c -0.4,0.23 -2.02,0.9 -3.62,1.55 c -3,1.18 -8.6,3.83 -11.65,5.5 c -0.95,0.53 -2.88,1.57 -4.25,2.3 c -2.73,1.48 -7.58,4.4 -9.38,5.65 c -10.35,7.25 -14.22,10.28 -19.73,15.47 c -7.72,7.28 -11.55,11.53 -16.8,18.52 c -7.17,9.57 -12.6,20.1 -15.78,30.5 c -1.2,4.03 -2.12,7.62 -2.55,10.15 c -1.18,6.97 -1.27,8.15 -1.25,16.23 c 0,6.58 0.1,8.53 0.55,11.88 c 1.07,8 4.12,18.38 7.28,24.62 c 2.08,4.12 5.2,9.22 7.5,12.18 c 2.55,3.3 9.2,10.05 11.97,12.12 c 2.4,1.82 5.97,4.25 7.42,5.05 c 0.42,0.23 1.2,0.7 1.75,1.02 c 1.75,1.07 7.67,3.88 8.18,3.88 c 0.15,0 0.6,0.15 1.02,0.35 c 1.4,0.65 5.3,1.85 10.18,3.12 c 2.92,0.78 6.72,1.45 11.53,2.02 c 3.92,0.47 5.4,0.53 14.25,0.45 c 7.25,-0.07 10.9,-0.23 13.85,-0.55 c 5.03,-0.55 12.7,-1.88 16.12,-2.77 c 3.42,-0.9 7.75,-2.15 9.12,-2.62 c 0.82,-0.3 2,-0.7 2.62,-0.88 c 0.62,-0.2 1.93,-0.65 2.88,-1 c 0.97,-0.38 2.25,-0.85 2.85,-1.05 c 0.62,-0.23 1.4,-0.55 1.75,-0.75 c 0.38,-0.17 0.78,-0.33 0.95,-0.33 c 0.17,0 0.72,-0.2 1.25,-0.47 c 0.53,-0.25 1.9,-0.9 3.05,-1.43 c 6.17,-2.85 14.07,-7.03 18.4,-9.75 c 0.97,-0.6 1.93,-1.18 2.12,-1.27 c 0.38,-0.17 3.92,-2.42 5.5,-3.48 c 4.03,-2.7 11.68,-8.6 13.97,-10.75 c 1.05,-0.95 2.92,-2.58 4.15,-3.6 c 2.83,-2.33 8.15,-7.53 11.45,-11.12 c 1.38,-1.52 3.48,-3.8 4.65,-5.1 c 2.55,-2.77 9.2,-11.07 11.18,-13.9 c 0.75,-1.1 1.82,-2.62 2.38,-3.38 c 0.55,-0.75 1.3,-1.82 1.65,-2.38 c 0.38,-0.55 1.6,-2.48 2.77,-4.25 c 1.15,-1.8 2.38,-3.65 2.67,-4.12 c 0.3,-0.47 1.05,-1.73 1.62,-2.75 c 0.6,-1.02 1.43,-2.45 1.88,-3.12 c 0.42,-0.7 1.4,-2.38 2.12,-3.75 c 4.17,-7.9 8.25,-15.88 8.25,-16.18 c 0,-0.12 0.45,-1.15 1,-2.33 c 0.55,-1.18 1,-2.17 1,-2.25 c 0,-0.05 0.35,-0.82 0.78,-1.68 c 0.4,-0.88 1.05,-2.3 1.4,-3.2 c 0.35,-0.9 1.07,-2.55 1.6,-3.7 c 0.55,-1.15 0.97,-2.17 0.97,-2.3 c 0,-0.12 0.62,-1.77 1.4,-3.67 c 0.75,-1.9 1.75,-4.47 2.23,-5.7 c 0.45,-1.25 1,-2.65 1.2,-3.12 c 0.47,-1.05 4,-10.05 4.38,-11.12 c 0.15,-0.42 0.55,-1.55 0.93,-2.5 c 0.35,-0.97 1.07,-3 1.6,-4.5 c 0.53,-1.52 1.38,-3.92 1.9,-5.38 c 0.53,-1.45 2.27,-6.58 3.9,-11.38 c 1.62,-4.83 3.35,-9.88 3.85,-11.25 c 0.5,-1.38 2.25,-6.6 3.9,-11.62 c 1.65,-5.03 3.9,-11.78 4.97,-15 c 1.07,-3.23 2.98,-9.03 4.25,-12.88 c 1.27,-3.85 3.42,-10.2 4.78,-14.12 c 1.35,-3.92 3.38,-10 4.5,-13.5 c 1.1,-3.5 6.05,-18.48 10.97,-33.25 c 4.92,-14.78 10.05,-30.3 11.43,-34.5 c 1.38,-4.2 2.7,-8.2 2.92,-8.88 c 0.23,-0.7 0.57,-1.75 0.78,-2.38 c 0.2,-0.62 0.65,-1.93 1,-2.88 c 0.35,-0.97 1.45,-4.17 2.42,-7.12 c 0.97,-2.95 1.95,-5.95 2.2,-6.62 c 0.25,-0.7 0.7,-2.1 1,-3.12 c 0.3,-1.02 0.65,-2.15 0.8,-2.5 c 0.23,-0.55 1.38,-4.05 6.45,-19.38 c 0.57,-1.8 1.15,-3.6 1.25,-4 c 0.12,-0.42 0.72,-2.23 1.38,-4 c 0.62,-1.8 1.27,-3.65 1.43,-4.12 c 0.55,-1.95 3.5,-10.68 3.85,-11.43 c 0.17,-0.42 0.35,-0.93 0.35,-1.12 c 0,-0.17 0.23,-1 0.5,-1.82 c 2.65,-7.88 3.33,-9.93 3.62,-11 c 0.17,-0.7 0.65,-2.2 1.07,-3.38 c 0.4,-1.18 0.97,-2.98 1.3,-4 c 0.95,-3.2 2.88,-9.12 4,-12.38 c 0.23,-0.7 1.2,-3.62 2.12,-6.5 c 0.93,-2.9 1.82,-5.65 2,-6.12 c 0.17,-0.47 0.62,-1.9 1,-3.12 c 0.38,-1.25 0.82,-2.7 1,-3.25 c 0.2,-0.55 0.57,-1.85 0.88,-2.88 c 0.3,-1.02 0.75,-2.55 1,-3.38 c 0.25,-0.82 0.7,-2.35 1,-3.38 c 0.3,-1.02 0.75,-2.5 1,-3.25 c 0.25,-0.75 0.7,-2.23 1,-3.25 c 0.3,-1.02 0.78,-2.55 1.02,-3.35 c 0.28,-0.82 0.47,-1.68 0.47,-1.9 c 0,-0.23 0.2,-1.15 0.47,-2.02 c 1.45,-4.95 3.17,-11.43 4.5,-16.85 c 0.85,-3.58 1.27,-5.22 1.62,-6.5 c 0.2,-0.7 0.45,-1.7 0.53,-2.25 c 0.1,-0.55 0.33,-1.5 0.5,-2.12 c 0.2,-0.62 0.42,-1.62 0.5,-2.25 c 0.1,-0.62 0.38,-2.08 0.62,-3.25 c 0.65,-3.05 0.97,-4.8 1.38,-7.58 c 0.2,-1.35 0.42,-2.55 0.47,-2.65 c 0.07,-0.1 0.3,-1.57 0.53,-3.27 c 0.23,-1.7 0.45,-3.17 0.5,-3.27 c 0.07,-0.08 0.23,-1.27 0.38,-2.62 c 0.15,-1.38 0.42,-3.65 0.62,-5.1 c 0.2,-1.45 0.6,-5.05 0.9,-8 c 1,-9.97 1.05,-34.27 0.12,-41.25 c -0.2,-1.45 -0.45,-3.75 -0.53,-5.12 c -0.1,-1.38 -0.33,-3.17 -0.5,-4 c -0.17,-0.82 -0.4,-2.3 -0.5,-3.25 c -0.07,-0.97 -0.3,-2.42 -0.5,-3.25 c -0.17,-0.82 -0.4,-2.17 -0.5,-3 c -0.07,-0.82 -0.38,-2.52 -0.65,-3.75 c -0.28,-1.25 -0.72,-3.33 -1,-4.62 c -0.28,-1.3 -0.65,-2.95 -0.85,-3.62 c -0.2,-0.7 -0.42,-1.7 -0.5,-2.25 c -0.1,-0.55 -0.33,-1.5 -0.53,-2.12 c -0.17,-0.62 -0.5,-1.75 -0.7,-2.5 c -0.68,-2.6 -1.73,-5.85 -2.3,-7.12 c -0.42,-0.97 -1.05,-2.7 -1.45,-4.12 c -0.2,-0.62 -0.53,-1.48 -0.75,-1.88 c -0.23,-0.42 -0.4,-0.9 -0.4,-1.05 c 0,-0.17 -0.23,-0.8 -0.47,-1.38 c -0.25,-0.6 -0.72,-1.7 -1.02,-2.45 c -0.3,-0.75 -0.7,-1.73 -0.88,-2.12 c -1.4,-3.2 -1.68,-3.8 -1.88,-4.12 c -0.12,-0.2 -0.6,-1.1 -1.02,-2 c -0.45,-0.9 -1.3,-2.65 -1.9,-3.88 c -0.6,-1.25 -1.6,-3.15 -2.2,-4.25 c -0.62,-1.1 -1.25,-2.27 -1.43,-2.62 c -0.75,-1.5 -4.3,-7.03 -7.33,-11.38 c -1.2,-1.73 -4.67,-6.1 -7.15,-9 c -2.85,-3.33 -6.78,-7.25 -10.85,-10.88 c -1.45,-1.27 -9.85,-7.95 -11.5,-9.12 c -0.78,-0.55 -1.7,-1.25 -2.08,-1.52 c -0.93,-0.72 -4.8,-3.35 -4.92,-3.35 c -0.07,0 -1.27,-0.75 -2.67,-1.65 c -1.38,-0.9 -3.73,-2.3 -5.17,-3.1 c -4.55,-2.48 -14.78,-7.4 -17.77,-8.57 c -1.57,-0.6 -3.83,-1.48 -5,-1.93 c -4.75,-1.82 -5.4,-2.1 -6.05,-2.55 c -0.8,-0.55 -0.9,-1.23 -0.28,-1.73 c 1.9,-1.6 6.45,-9.97 8.07,-14.95 c 2,-6.12 2.95,-12.97 3.17,-23.18 c 0.15,-6.45 0.15,-6.53 -0.4,-7.08 c -0.65,-0.65 -1.32,-0.65 -2.73,-0.03 z m -17.27,25.3 c 0.1,0.38 0.15,1.65 0.1,2.8 c -0.12,3.45 -1.85,8.53 -4.05,11.88 c -4.45,6.83 -6.3,8.97 -10.82,12.55 c -3.02,2.4 -7.9,4.58 -12.22,5.5 c -2.08,0.42 -3.1,0.5 -5.12,0.4 c -2.98,-0.15 -5.65,-0.78 -6.95,-1.62 c -1.02,-0.68 -1.82,-2.27 -1.55,-3.15 c 0.1,-0.28 0.38,-0.85 0.65,-1.23 c 0.28,-0.38 0.85,-1.32 1.25,-2.12 c 0.42,-0.78 0.93,-1.6 1.1,-1.82 c 0.2,-0.2 0.35,-0.47 0.35,-0.57 c 0,-0.3 3.25,-5.12 5.17,-7.67 c 2.42,-3.25 4.6,-5 9.2,-7.42 c 4.33,-2.3 8.18,-3.88 12.62,-5.17 c 3.45,-1 8.18,-2.58 8.75,-2.9 c 0.68,-0.4 1.32,-0.12 1.52,0.57 z m -6.9,33.83 c 0.4,0.17 1.43,0.57 2.25,0.88 c 1.73,0.65 7.47,3.42 9.88,4.78 c 2.17,1.23 4.22,2.35 6.38,3.48 c 1.68,0.88 2.38,1.3 6.1,3.62 c 3.73,2.33 9.35,6.15 11.28,7.65 c 5.55,4.3 8.57,6.83 10.97,9.1 c 1.45,1.38 3,2.83 3.48,3.25 c 2.15,1.93 8.47,9.43 12.72,15.12 c 2.42,3.25 2.9,3.98 5,7.45 c 1.68,2.77 2.02,3.4 2.55,4.42 c 0.28,0.55 1.12,2.12 1.9,3.5 c 2.6,4.7 6.55,12.9 8.15,16.93 c 0.28,0.68 0.7,1.8 1,2.5 c 0.28,0.72 0.68,1.82 0.85,2.45 c 0.2,0.62 0.65,1.9 1,2.88 c 0.38,0.95 0.88,2.42 1.12,3.25 c 1.57,5.12 2.33,7.78 2.88,10.12 c 0.17,0.75 0.45,1.88 0.6,2.5 c 0.15,0.62 0.45,1.85 0.68,2.75 c 0.85,3.4 2.1,10.43 2.62,14.88 c 0.15,1.23 0.42,3.23 0.62,4.42 c 0.2,1.18 0.55,4.5 0.8,7.38 c 0.85,10.2 0.42,31.1 -0.8,40.2 c -0.53,3.83 -1.15,8.82 -1.43,11.5 c -0.15,1.23 -0.35,2.65 -0.47,3.12 c -0.12,0.47 -0.35,1.65 -0.5,2.62 c -0.15,0.95 -0.47,2.65 -0.72,3.75 c -0.25,1.1 -0.65,2.9 -0.9,4 c -0.4,1.93 -0.82,3.8 -1.75,7.5 c -0.23,0.95 -0.57,2.38 -0.72,3.12 c -0.57,2.48 -0.95,3.85 -2.4,9.12 c -1.85,6.65 -4.45,15.35 -5.12,17.12 c -0.17,0.47 -0.62,1.88 -1.02,3.12 c -0.6,2 -1.12,3.6 -2.73,8.25 c -0.23,0.68 -0.55,1.7 -0.7,2.25 c -0.17,0.55 -0.4,1.12 -0.5,1.3 c -0.1,0.15 -0.57,1.45 -1.05,2.88 c -0.9,2.67 -1.12,3.3 -3.5,9.7 c -0.8,2.12 -1.6,4.38 -1.8,5 c -0.23,0.62 -0.75,2.08 -1.2,3.25 c -0.8,2.1 -0.97,2.52 -1.9,5.22 c -0.82,2.33 -1.55,2.73 -3.12,1.75 c -0.72,-0.45 -0.85,-0.65 -0.85,-1.48 c 0,-0.53 0.1,-1.25 0.25,-1.62 c 0.3,-0.75 1.15,-4.72 1.62,-7.45 c 0.2,-1.05 0.42,-2.05 0.5,-2.2 c 0.1,-0.12 0.33,-1.12 0.5,-2.17 c 0.17,-1.05 0.53,-2.73 0.75,-3.67 c 0.23,-0.97 0.62,-2.65 0.9,-3.75 c 0.25,-1.12 0.47,-2.35 0.47,-2.77 c 0,-0.42 0.15,-1.32 0.35,-2 c 0.2,-0.68 0.42,-1.8 0.53,-2.48 c 0.07,-0.7 0.38,-2.2 0.62,-3.38 c 0.62,-2.88 0.95,-4.67 1.4,-7.47 c 0.2,-1.27 0.42,-2.45 0.5,-2.58 c 0.1,-0.15 0.3,-1.18 0.47,-2.3 c 0.17,-1.1 0.5,-3.05 0.72,-4.28 c 0.6,-3.25 1.1,-6.33 1.27,-7.62 c 0.15,-1.05 0.8,-4.92 1.4,-8.38 c 0.38,-2.05 1.15,-7.8 1.6,-11.88 c 0.2,-1.85 0.53,-4.4 0.72,-5.62 c 0.2,-1.25 0.42,-3.27 0.5,-4.5 c 0.1,-1.25 0.33,-3.38 0.53,-4.75 c 0.6,-4.22 1.18,-11.4 1.68,-21.25 c 0.42,-8.35 0.55,-21.95 0.23,-23.5 c -0.15,-0.7 -0.38,-3.25 -0.53,-5.72 c -0.15,-2.45 -0.42,-5.2 -0.6,-6.12 c -0.2,-0.9 -0.42,-2.6 -0.53,-3.77 c -0.07,-1.18 -0.25,-2.52 -0.38,-3 c -0.12,-0.47 -0.35,-1.9 -0.5,-3.12 c -0.15,-1.25 -0.42,-3.05 -0.62,-4 c -0.2,-0.97 -0.47,-2.33 -0.6,-3 c -0.57,-2.92 -1.68,-7.53 -2.4,-10 c -0.2,-0.7 -0.7,-2.42 -1.1,-3.88 c -0.42,-1.45 -0.85,-2.98 -1,-3.38 c -0.47,-1.43 -1.05,-3.25 -1.4,-4.5 c -0.17,-0.7 -0.85,-2.73 -1.5,-4.5 c -0.62,-1.8 -1.27,-3.65 -1.43,-4.12 c -0.12,-0.47 -0.35,-1 -0.47,-1.15 c -0.12,-0.15 -0.38,-0.7 -0.57,-1.25 c -0.17,-0.53 -0.75,-1.88 -1.27,-2.98 c -0.5,-1.1 -1.15,-2.5 -1.43,-3.12 c -1.73,-3.75 -3.83,-7.88 -5.83,-11.4 c -1.25,-2.2 -2.35,-4.17 -2.45,-4.38 c -0.35,-0.85 -4.72,-7.42 -6.3,-9.5 c -6.08,-7.9 -7.4,-9.53 -11.47,-13.7 c -3.12,-3.25 -5.62,-5.6 -9.1,-8.57 c -4.28,-3.65 -12.5,-9.68 -15.53,-11.35 c -0.45,-0.28 -1.02,-0.6 -1.25,-0.72 c -1.77,-1.12 -4.17,-2.4 -8.88,-4.75 c -3.85,-1.93 -5.85,-3.1 -6.72,-3.88 c -1.12,-1.02 -1.23,-1.2 -0.95,-1.7 c 0.15,-0.3 0.53,-0.68 0.85,-0.82 c 0.3,-0.17 1.27,-0.9 2.17,-1.6 c 0.9,-0.7 1.8,-1.35 2,-1.45 c 0.45,-0.17 1.6,0.03 2.62,0.45 z m -73.05,50.55 c 2.23,0.62 3.58,1.45 5.42,3.3 c 2.65,2.67 3.7,5.53 3.92,10.65 c 0.12,2.65 0.05,3.3 -0.5,5.62 c -0.7,2.83 -1.1,3.92 -2.1,5.88 c -2.17,4.17 -6.88,7.65 -11.93,8.75 c -4.42,0.97 -8.7,-0.47 -11.9,-4.08 c -2.35,-2.62 -3.5,-5.83 -3.5,-9.68 c 0,-3.05 0.35,-5.12 1.27,-7.9 c 0.97,-2.92 1.75,-4.47 3.1,-6.22 c 4.5,-5.8 10.2,-8.03 16.2,-6.33 z"/>
    <path id="wave" fill-rule="evenodd" d="M 607.33,706.4 c -0.28,0.12 -1.35,2.77 -3.95,9.72 c -0.47,1.23 -1.2,3.2 -1.65,4.38 c -1.45,3.85 -1.95,5.1 -3,7.5 c -0.57,1.3 -1.25,2.98 -1.5,3.73 c -0.25,0.75 -0.57,1.48 -0.68,1.62 c -0.12,0.15 -0.57,1.23 -1.02,2.38 c -0.45,1.15 -0.93,2.27 -1.05,2.5 c -0.57,1.02 -2.7,6.8 -2.6,7.08 c 0.12,0.3 1.55,1.1 3.62,2.02 c 3.12,1.38 4.72,2.15 12.12,5.85 c 4.55,2.25 10.95,5.5 14.25,7.2 c 3.3,1.7 6.85,3.55 7.88,4.08 c 2.42,1.25 5.3,2.8 5.62,3.05 c 0.15,0.1 1.38,0.8 2.75,1.52 c 1.38,0.72 3.08,1.62 3.75,2.02 c 0.7,0.38 1.48,0.8 1.75,0.93 c 0.28,0.12 1.12,0.57 1.88,1.02 c 0.75,0.45 2.1,1.2 3,1.68 c 0.9,0.45 1.8,0.95 2,1.07 c 0.8,0.5 5.83,3.25 5.92,3.25 c 0.05,0 1.65,0.9 3.55,2 c 1.9,1.07 4.12,2.33 4.92,2.75 c 2.4,1.25 4.17,2.25 5.1,2.88 c 1.3,0.85 6.2,3.62 6.4,3.62 c 0.1,0 0.38,0.15 0.57,0.35 c 0.23,0.17 1.12,0.72 2.02,1.23 c 2.8,1.5 4.58,2.5 5.75,3.2 c 1.8,1.1 8,4.72 9.5,5.55 c 0.75,0.4 2.08,1.12 2.92,1.57 c 0.88,0.47 2.95,1.68 4.62,2.67 c 1.7,1 4.78,2.77 6.83,3.92 c 2.08,1.15 5.38,3 7.38,4.12 c 2,1.12 5.2,2.88 7.12,3.88 c 1.93,1.02 5.25,2.8 7.38,3.98 c 2.12,1.18 5.8,3.1 8.12,4.3 c 2.35,1.18 5.2,2.67 6.38,3.3 c 2.35,1.3 9.25,4.72 13.12,6.55 c 1.38,0.65 5.25,2.52 8.62,4.17 c 6.78,3.33 8.1,3.95 8.32,3.95 c 0.1,0 0.97,0.38 1.98,0.85 c 1,0.45 3.58,1.6 5.7,2.52 c 2.12,0.95 4.8,2.12 5.95,2.67 c 1.12,0.53 2.17,0.95 2.3,0.95 c 0.12,0 0.72,0.23 1.3,0.47 c 0.6,0.28 2.2,0.95 3.58,1.52 c 1.38,0.57 2.85,1.2 3.25,1.38 c 0.42,0.2 1.6,0.7 2.62,1.12 c 1.02,0.42 2.23,0.95 2.67,1.15 c 0.42,0.2 0.9,0.35 1.05,0.35 c 0.15,0 0.7,0.23 1.2,0.5 c 0.53,0.28 1.07,0.5 1.23,0.5 c 0.15,0 0.78,0.2 1.38,0.45 c 0.6,0.25 1.95,0.8 2.98,1.18 c 1.02,0.4 2,0.8 2.12,0.9 c 0.15,0.08 0.7,0.3 1.25,0.47 c 0.55,0.17 1.12,0.4 1.25,0.5 c 0.15,0.1 0.75,0.35 1.38,0.57 c 0.62,0.2 1.75,0.62 2.5,0.93 c 0.75,0.3 2.62,1 4.12,1.55 c 1.52,0.55 3.48,1.27 4.38,1.62 c 0.9,0.33 2.05,0.7 2.55,0.85 c 0.5,0.12 1.3,0.38 1.75,0.57 c 0.45,0.2 1.77,0.65 2.95,1 c 1.18,0.35 4.72,1.48 7.88,2.5 c 5.9,1.9 8.8,2.77 11.62,3.52 c 0.9,0.23 2.35,0.62 3.25,0.88 c 0.9,0.25 3.77,0.97 6.38,1.6 c 2.62,0.65 5.38,1.32 6.12,1.52 c 1.95,0.47 4.17,1 7.5,1.75 c 1.57,0.35 3.83,0.85 5,1.12 c 1.18,0.28 2.8,0.6 3.62,0.72 c 0.82,0.15 2.3,0.4 3.25,0.6 c 0.97,0.2 3.15,0.6 4.88,0.9 c 1.73,0.3 4.03,0.7 5.12,0.9 c 1.1,0.2 2.8,0.47 3.75,0.62 c 0.97,0.15 3.33,0.53 5.25,0.88 c 1.93,0.35 4.35,0.75 5.38,0.88 c 1.02,0.15 3.05,0.42 4.5,0.62 c 18.82,2.58 32.35,3.55 53.62,3.77 c 17.12,0.2 26.73,-0.1 39.5,-1.25 c 4.78,-0.45 9.62,-1.02 12.88,-1.52 c 1.3,-0.2 4.35,-0.65 6.75,-1.02 c 11.25,-1.65 26.65,-5.03 37,-8.1 c 9.5,-2.83 16.38,-5.08 20,-6.5 c 0.75,-0.3 1.95,-0.75 2.62,-1 c 1.7,-0.6 12.32,-4.9 13.25,-5.35 c 0.42,-0.2 1.57,-0.72 2.58,-1.15 c 1.9,-0.8 11.12,-5.45 12.93,-6.5 c 0.55,-0.33 1.4,-0.8 1.88,-1.05 c 0.47,-0.25 1.27,-0.7 1.75,-1 c 0.47,-0.3 1.1,-0.65 1.38,-0.8 c 0.28,-0.15 1.18,-0.72 2,-1.25 c 2.65,-1.73 3.98,-2.55 5.5,-3.4 c 1.73,-0.97 7.47,-4.85 10.75,-7.22 c 5.9,-4.3 13.82,-10.78 18.7,-15.28 c 4.95,-4.58 12.55,-12.2 15.3,-15.38 c 1.07,-1.25 2.55,-2.88 3.25,-3.62 c 1.7,-1.77 8.6,-10.68 11.65,-15 c 1.95,-2.77 5.65,-8.32 6.9,-10.38 c 0.53,-0.85 2.73,-4.72 2.92,-5.12 c 0.1,-0.2 0.42,-0.8 0.72,-1.3 c 3.12,-5.22 6.78,-12.43 7.05,-14 c 0.23,-1.12 -0.35,-2.4 -1.52,-3.45 c -0.7,-0.6 -1.1,-0.75 -2,-0.75 c -0.62,0 -1.52,0.17 -1.95,0.38 c -1.1,0.53 -3.12,2.52 -4.9,4.85 c -0.8,1.05 -1.7,2.17 -2,2.52 c -0.3,0.35 -1.45,1.7 -2.58,3 c -11.75,13.55 -20.12,22.07 -29.9,30.4 c -6.33,5.38 -6.92,5.85 -10.4,8.35 c -6.55,4.72 -14.75,10.07 -20.12,13.12 c -4.85,2.75 -13.82,7.25 -18.88,9.45 c -3.2,1.38 -12.35,5.03 -14.75,5.88 c -0.4,0.15 -1.52,0.55 -2.5,0.93 c -2.48,0.9 -5.65,1.9 -10.75,3.35 c -0.95,0.28 -2.52,0.72 -3.5,1 c -4.6,1.32 -11.32,2.88 -17.62,4.03 c -1.57,0.3 -4,0.75 -5.38,1 c -1.38,0.28 -3.17,0.55 -4,0.62 c -0.82,0.1 -2.45,0.33 -3.62,0.5 c -1.18,0.17 -3.12,0.4 -4.38,0.5 c -1.23,0.07 -3.2,0.3 -4.38,0.5 c -1.18,0.2 -3.35,0.42 -4.88,0.5 c -1.5,0.07 -4.83,0.33 -7.38,0.55 c -3.75,0.35 -8.1,0.42 -23.25,0.42 c -15.93,0.03 -19.2,-0.02 -22.62,-0.4 c -2.2,-0.25 -5.62,-0.5 -7.62,-0.57 c -2,-0.1 -4.35,-0.28 -5.25,-0.4 c -0.9,-0.15 -3.48,-0.42 -5.75,-0.6 c -6,-0.5 -15.3,-1.6 -21.12,-2.5 c -1.23,-0.2 -2.92,-0.42 -3.75,-0.5 c -0.82,-0.1 -1.9,-0.28 -2.4,-0.4 c -0.5,-0.12 -2.02,-0.4 -3.38,-0.6 c -3.17,-0.47 -7.38,-1.23 -10.22,-1.85 c -1.23,-0.28 -3.1,-0.68 -4.12,-0.88 c -1.02,-0.23 -2.6,-0.57 -3.5,-0.78 c -0.9,-0.2 -2.08,-0.42 -2.62,-0.5 c -1.1,-0.17 -8.25,-1.88 -11,-2.62 c -0.95,-0.25 -2.7,-0.7 -3.88,-1 c -1.18,-0.3 -2.98,-0.78 -4,-1.05 c -5.85,-1.6 -4.92,-1.35 -12.75,-3.55 c -6.2,-1.77 -28.82,-9.38 -37.33,-12.55 c -2.77,-1.05 -7.25,-2.67 -9.93,-3.65 c -2.67,-0.95 -6.3,-2.35 -8.05,-3.1 c -1.75,-0.72 -6.15,-2.52 -9.78,-3.95 c -3.62,-1.45 -7.47,-3 -8.57,-3.48 c -2.65,-1.15 -6.58,-2.8 -8.85,-3.75 c -1.9,-0.78 -8.97,-3.83 -10.93,-4.7 c -0.6,-0.25 -1.57,-0.7 -2.2,-0.97 c -0.62,-0.28 -1.6,-0.72 -2.17,-0.97 c -2.55,-1.15 -3.42,-1.52 -3.55,-1.52 c -0.07,0 -1,-0.4 -2.08,-0.9 c -1.07,-0.5 -2.42,-1.12 -3,-1.38 c -1.07,-0.47 -2.42,-1.07 -4.38,-1.95 c -0.6,-0.25 -2.17,-1 -3.52,-1.62 c -1.32,-0.62 -2.5,-1.15 -2.55,-1.15 c -0.07,0 -1.73,-0.78 -3.7,-1.73 c -1.95,-0.93 -4.22,-2.02 -5.05,-2.4 c -4.85,-2.23 -8.57,-4.08 -20.62,-10.2 c -11.3,-5.78 -14.1,-7.2 -15.25,-7.83 c -0.62,-0.35 -2.52,-1.38 -4.25,-2.27 c -1.73,-0.9 -3.85,-2.05 -4.75,-2.58 c -0.9,-0.5 -2.35,-1.27 -3.25,-1.73 c -0.9,-0.45 -2.08,-1.07 -2.62,-1.38 c -3.5,-1.93 -7.58,-4.1 -11.88,-6.33 c -1.45,-0.75 -3.7,-1.98 -5,-2.7 c -1.3,-0.72 -3.73,-2 -5.38,-2.88 c -1.65,-0.85 -3.1,-1.65 -3.25,-1.75 c -1,-0.75 -33.8,-17.25 -43.12,-21.7 c -11.55,-5.5 -22.95,-10.78 -26.38,-12.2 c -1.77,-0.75 -4.03,-1.73 -5,-2.12 c -2.17,-0.95 -2.17,-0.95 -2.55,-0.82 z"/>
    <path id="dot_1" fill-rule="evenodd" d="M 748.5,670.17 c -4.7,0.78 -8.6,1.93 -12,3.52 c -1.23,0.57 -5.83,3.2 -6.83,3.88 c -3.3,2.25 -5.08,3.98 -8.7,8.47 c -1.65,2.05 -2.75,3.73 -3.7,5.62 c -0.72,1.48 -1.43,2.9 -1.55,3.12 c -1.05,2.05 -1.98,5.3 -2.85,9.82 c -1.25,6.53 -0.65,13.53 1.8,21.12 c 0.78,2.45 0.95,2.9 2.5,6 c 1.35,2.7 4.58,7.03 7.55,10.07 c 1.62,1.7 5.33,4.75 7.45,6.12 c 2.67,1.77 6.9,3.62 10.2,4.5 c 4.15,1.1 5.6,1.35 8.93,1.57 c 8.1,0.5 15.97,-1.02 22.45,-4.35 c 1.02,-0.55 2.05,-1.12 2.27,-1.32 c 0.2,-0.2 0.45,-0.35 0.55,-0.35 c 0.2,0 1.35,-0.8 3.67,-2.52 c 2.9,-2.17 6.72,-6.33 9.53,-10.35 c 0.88,-1.23 2.67,-4.83 3.67,-7.25 c 0.28,-0.7 0.68,-1.7 0.9,-2.25 c 0.23,-0.55 0.53,-1.6 0.65,-2.33 c 0.12,-0.72 0.35,-1.5 0.45,-1.75 c 0.12,-0.23 0.47,-1.93 0.8,-3.75 c 0.62,-3.77 0.6,-7.25 -0.1,-11.93 c -1.18,-8.07 -3.15,-12.78 -8.15,-19.52 c -2.27,-3.05 -4.38,-5.25 -7.1,-7.42 c -4.62,-3.7 -8.32,-5.62 -14.03,-7.4 c -4.03,-1.23 -6.5,-1.52 -12.3,-1.5 c -3,0.03 -5.72,0.1 -6.08,0.15 z m 11.32,30.95 c 1.1,0.55 2.45,1.4 3.05,1.95 c 1.45,1.25 2.77,3.45 3.27,5.45 c 0.57,2.15 0.55,5.47 -0.03,7.22 c -1.65,5.1 -6.22,8.5 -11.38,8.5 c -3.5,0 -6.6,-1.35 -9,-3.92 c -0.82,-0.88 -1.7,-2 -1.98,-2.52 c -1.85,-3.62 -1.65,-8.62 0.47,-12.18 c 1.35,-2.25 4.7,-4.7 7.38,-5.4 c 0.42,-0.12 2,-0.17 3.5,-0.12 c 2.62,0.07 2.85,0.12 4.7,1.02 z"/>
    <path id="dot_2" fill-rule="evenodd" d="M 894.62,724.12 c -4.67,0.7 -10.6,2.33 -14,3.88 c -1.95,0.88 -6.25,3.65 -8.5,5.5 c -2.17,1.8 -5.65,5.38 -7.15,7.38 c -4.28,5.67 -7,12.2 -8.35,19.95 c -0.55,3.15 -0.4,9.82 0.35,13.55 c 0.55,2.92 1.45,6.15 1.8,6.47 c 0.12,0.15 0.23,0.42 0.23,0.65 c 0,0.5 2.77,6.03 4.2,8.35 c 1.77,2.9 5.92,7.62 8.55,9.75 c 3.75,3.05 9.07,6.17 13.25,7.78 c 4.3,1.65 8.5,2.38 13.62,2.38 c 5.2,-0.03 8.62,-0.53 13.12,-1.9 c 4.85,-1.5 10.9,-4.83 15,-8.22 c 1.65,-1.38 2.92,-2.7 6.15,-6.38 c 0.42,-0.47 1.27,-1.68 1.88,-2.65 c 0.6,-0.95 1.25,-1.98 1.43,-2.25 c 0.9,-1.4 3.55,-7.15 3.8,-8.22 c 0.15,-0.68 0.42,-1.75 0.6,-2.38 c 0.97,-3.25 1.27,-6.1 1.27,-11.75 c 0,-5.9 -0.15,-7 -1.43,-11.38 c -0.68,-2.33 -1.25,-3.7 -2.9,-7.08 c -1.6,-3.3 -2.95,-5.4 -5.25,-8.12 c -1.93,-2.27 -6.38,-6.4 -8.62,-8 c -4.5,-3.2 -12.65,-6.5 -18.05,-7.3 c -3.08,-0.45 -7.9,-0.45 -11,0 z m 8.28,30.45 c 2.38,0.8 3.25,1.32 4.9,2.95 c 3.8,3.8 4.53,9.4 1.9,14.6 c -0.62,1.23 -2.9,3.48 -4.17,4.12 c -3.42,1.75 -5.85,2.08 -9,1.27 c -2.38,-0.62 -3.73,-1.35 -5.5,-2.92 c -1.55,-1.4 -2.62,-3.08 -3.15,-4.95 c -0.55,-1.9 -0.42,-5.97 0.25,-7.65 c 1.12,-2.75 3.45,-5.45 5.72,-6.6 c 2.98,-1.5 6.2,-1.77 9.05,-0.82 z"/>
    <path id="dot_3" fill-rule="evenodd" d="M 1042.5,736.9 c -1.1,0.2 -4.83,1.12 -6.5,1.62 c -3.45,1.02 -9.45,3.85 -12.62,5.95 c -0.95,0.62 -3.33,2.73 -5.28,4.65 c -3.85,3.83 -5.83,6.5 -8.05,11 c -1.57,3.17 -2.42,5.55 -3.17,8.9 c -2.2,9.9 -1.27,20.48 2.5,28.6 c 4,8.65 11.18,16.18 19,19.98 c 7,3.4 13.7,5.12 19.98,5.15 c 4.1,0 9.55,-0.97 14.03,-2.55 c 3.23,-1.12 8.05,-3.65 10.53,-5.53 c 4.9,-3.7 7.8,-6.75 11.47,-12.18 c 1.55,-2.3 3.62,-6.12 3.62,-6.75 c 0,-0.2 0.17,-0.7 0.38,-1.1 c 0.38,-0.7 0.97,-2.67 1.4,-4.53 c 0.1,-0.55 0.4,-1.85 0.62,-2.88 c 0.53,-2.35 0.78,-11.93 0.38,-14 c -1.27,-6.38 -2.17,-9.28 -4.05,-13.07 c -1.35,-2.73 -1.73,-3.33 -4.12,-6.55 c -4.72,-6.33 -10.07,-10.53 -17.85,-13.93 c -1.73,-0.78 -4.35,-1.57 -7.33,-2.25 c -1.9,-0.42 -3.3,-0.53 -8.3,-0.57 c -3.3,-0.05 -6.28,-0.03 -6.62,0.03 z m 9.62,30.95 c 3.67,0.97 6.67,3.62 8.2,7.25 c 0.45,1.07 0.53,1.77 0.55,4.53 l 0,3.25 l -1,1.88 c -1.77,3.33 -4.47,5.53 -8.1,6.6 c -1.73,0.5 -3.77,0.5 -5.92,0 c -2.08,-0.47 -3.45,-1.15 -5.17,-2.6 c -4.4,-3.62 -5.28,-9.85 -2.17,-15.32 c 1.18,-2.08 3.17,-3.92 5.17,-4.78 c 2.45,-1.07 6.15,-1.43 8.45,-0.8 z"/>
  </g>
</svg>
